<svg xmlns="http://www.w3.org/2000/svg" width="670" height="290" viewBox="0 0 670 290">

  <defs>
    <linearGradient id="stoneGrad" x1="0" y1="0" x2="0" y2="1">
      <stop offset="0%" stop-color="#6f5544"/>
      <stop offset="52%" stop-color="#3a2a22"/>
      <stop offset="100%" stop-color="#221814"/>
    </linearGradient>
    <linearGradient id="bronzeGrad" x1="0" y1="0" x2="1" y2="1">
      <stop offset="0%" stop-color="#c39b61"/>
      <stop offset="45%" stop-color="#8b653d"/>
      <stop offset="100%" stop-color="#4d3926"/>
    </linearGradient>
    <linearGradient id="innerGrad" x1="0" y1="0" x2="0" y2="1">
      <stop offset="0%" stop-color="#2d221c"/>
      <stop offset="100%" stop-color="#120d0b"/>
    </linearGradient>
    <radialGradient id="glowGrad" cx="50%" cy="40%" r="75%">
      <stop offset="0%" stop-color="#f0c57b" stop-opacity="0.7"/>
      <stop offset="70%" stop-color="#d79a4e" stop-opacity="0.18"/>
      <stop offset="100%" stop-color="#d79a4e" stop-opacity="0"/>
    </radialGradient>
    <filter id="innerShadow" x="-20%" y="-20%" width="140%" height="140%">
      <feOffset dx="0" dy="10"/>
      <feGaussianBlur stdDeviation="12" result="b"/>
      <feComposite in="SourceGraphic" in2="b" operator="arithmetic" k2="1" k3="-1"/>
    </filter>
  </defs>

  <rect x="16" y="16" width="638" height="258" rx="24" fill="url(#stoneGrad)" stroke="#0a0706" stroke-width="10"/>
  <rect x="34" y="34" width="602" height="222" rx="18" fill="#181210" stroke="url(#bronzeGrad)" stroke-width="8"/>
  <rect x="54" y="54" width="174" height="182" rx="14" fill="#241a15" stroke="#6d523a" stroke-width="6"/>
  <rect x="252" y="58" width="344" height="50" rx="10" fill="#201713" stroke="#654c36" stroke-width="4"/>
  <rect x="252" y="126" width="344" height="36" rx="8" fill="#18110e" stroke="#5a4330" stroke-width="3"/>
  <rect x="252" y="176" width="344" height="36" rx="8" fill="#18110e" stroke="#5a4330" stroke-width="3"/>
  <path d="M68 54l74 -18 72 18" fill="none" stroke="url(#bronzeGrad)" stroke-width="8" stroke-linecap="round"/>
  <path d="M266 80h250" stroke="#f3cf8f" stroke-opacity="0.18" stroke-width="5"/>
</svg>