<?xml version="1.0" encoding="UTF-8"?>
<svg xmlns="http://www.w3.org/2000/svg" width="320" height="200" viewBox="0 0 320 200">
  <image href="../../../verification-screens/01_ingame_start_latest.png" x="0" y="0" width="320" height="200"/>
  <rect x="0" y="33" width="224" height="136" fill="none" stroke="#ffffff" stroke-width="1"/>
  <text x="2" y="30" fill="#ffffff" font-family="monospace" font-size="7">C2500 objects / C2900 projectiles / C3200 creatures</text>
  <g stroke="#ffdc40" fill="none" stroke-width="1"><line x1="124" y1="103" x2="130" y2="103"/><line x1="127" y1="100" x2="127" y2="106"/><circle cx="127" cy="103" r="2"/></g>
  <g stroke="#ffdc40" fill="none" stroke-width="1"><line x1="95" y1="103" x2="101" y2="103"/><line x1="98" y1="100" x2="98" y2="106"/><circle cx="98" cy="103" r="2"/></g>
  <g stroke="#ffdc40" fill="none" stroke-width="1"><line x1="59" y1="103" x2="65" y2="103"/><line x1="62" y1="100" x2="62" y2="106"/><circle cx="62" cy="103" r="2"/></g>
  <g stroke="#ffdc40" fill="none" stroke-width="1"><line x1="22" y1="103" x2="28" y2="103"/><line x1="25" y1="100" x2="25" y2="106"/><circle cx="25" cy="103" r="2"/></g>
  <g stroke="#ffdc40" fill="none" stroke-width="1"><line x1="197" y1="103" x2="203" y2="103"/><line x1="200" y1="100" x2="200" y2="106"/><circle cx="200" cy="103" r="2"/></g>
  <g stroke="#ffdc40" fill="none" stroke-width="1"><line x1="159" y1="103" x2="165" y2="103"/><line x1="162" y1="100" x2="162" y2="106"/><circle cx="162" cy="103" r="2"/></g>
  <g stroke="#ffdc40" fill="none" stroke-width="1"><line x1="-1" y1="103" x2="5" y2="103"/><line x1="2" y1="100" x2="2" y2="106"/><circle cx="2" cy="103" r="2"/></g>
  <g stroke="#ffdc40" fill="none" stroke-width="1"><line x1="0" y1="103" x2="0" y2="103"/><rect x="-2" y="101" width="4" height="4"/></g>
  <g stroke="#ffdc40" fill="none" stroke-width="1"><line x1="223" y1="103" x2="258" y2="103"/><rect x="221" y="101" width="4" height="4"/></g>
  <g stroke="#ffdc40" fill="none" stroke-width="1"><line x1="219" y1="103" x2="225" y2="103"/><line x1="222" y1="100" x2="222" y2="106"/><circle cx="222" cy="103" r="2"/></g>
  <g stroke="#ffdc40" fill="none" stroke-width="1"><line x1="91" y1="111" x2="97" y2="111"/><line x1="94" y1="108" x2="94" y2="114"/><circle cx="94" cy="111" r="2"/></g>
  <g stroke="#ffdc40" fill="none" stroke-width="1"><line x1="128" y1="111" x2="134" y2="111"/><line x1="131" y1="108" x2="131" y2="114"/><circle cx="131" cy="111" r="2"/></g>
  <g stroke="#ffdc40" fill="none" stroke-width="1"><line x1="133" y1="121" x2="139" y2="121"/><line x1="136" y1="118" x2="136" y2="124"/><circle cx="136" cy="121" r="2"/></g>
  <g stroke="#ffdc40" fill="none" stroke-width="1"><line x1="86" y1="121" x2="92" y2="121"/><line x1="89" y1="118" x2="89" y2="124"/><circle cx="89" cy="121" r="2"/></g>
  <g stroke="#ffdc40" fill="none" stroke-width="1"><line x1="7" y1="111" x2="13" y2="111"/><line x1="10" y1="108" x2="10" y2="114"/><circle cx="10" cy="111" r="2"/></g>
  <g stroke="#ffdc40" fill="none" stroke-width="1"><line x1="50" y1="112" x2="56" y2="112"/><line x1="53" y1="109" x2="53" y2="115"/><circle cx="53" cy="112" r="2"/></g>
  <g stroke="#ffdc40" fill="none" stroke-width="1"><line x1="38" y1="121" x2="44" y2="121"/><line x1="41" y1="118" x2="41" y2="124"/><circle cx="41" cy="121" r="2"/></g>
  <g stroke="#ffdc40" fill="none" stroke-width="1"><line x1="0" y1="122" x2="0" y2="122"/><rect x="-2" y="120" width="4" height="4"/></g>
  <g stroke="#ffdc40" fill="none" stroke-width="1"><line x1="168" y1="111" x2="174" y2="111"/><line x1="171" y1="108" x2="171" y2="114"/><circle cx="171" cy="111" r="2"/></g>
  <g stroke="#ffdc40" fill="none" stroke-width="1"><line x1="215" y1="111" x2="221" y2="111"/><line x1="218" y1="108" x2="218" y2="114"/><circle cx="218" cy="111" r="2"/></g>
  <g stroke="#ffdc40" fill="none" stroke-width="1"><line x1="223" y1="122" x2="236" y2="122"/><rect x="221" y="120" width="4" height="4"/></g>
  <g stroke="#ffdc40" fill="none" stroke-width="1"><line x1="181" y1="121" x2="187" y2="121"/><line x1="184" y1="118" x2="184" y2="124"/><circle cx="184" cy="121" r="2"/></g>
  <g stroke="#ffdc40" fill="none" stroke-width="1"><line x1="80" y1="132" x2="86" y2="132"/><line x1="83" y1="129" x2="83" y2="135"/><circle cx="83" cy="132" r="2"/></g>
  <g stroke="#ffdc40" fill="none" stroke-width="1"><line x1="138" y1="132" x2="144" y2="132"/><line x1="141" y1="129" x2="141" y2="135"/><circle cx="141" cy="132" r="2"/></g>
  <g stroke="#ffdc40" fill="none" stroke-width="1"><line x1="147" y1="148" x2="153" y2="148"/><line x1="150" y1="145" x2="150" y2="151"/><circle cx="150" cy="148" r="2"/></g>
  <g stroke="#ffdc40" fill="none" stroke-width="1"><line x1="73" y1="148" x2="79" y2="148"/><line x1="76" y1="145" x2="76" y2="151"/><circle cx="76" cy="148" r="2"/></g>
  <g stroke="#ffdc40" fill="none" stroke-width="1"><line x1="0" y1="134" x2="0" y2="134"/><rect x="-2" y="132" width="4" height="4"/></g>
  <g stroke="#ffdc40" fill="none" stroke-width="1"><line x1="21" y1="132" x2="27" y2="132"/><line x1="24" y1="129" x2="24" y2="135"/><circle cx="24" cy="132" r="2"/></g>
  <g stroke="#ffdc40" fill="none" stroke-width="1"><line x1="2" y1="147" x2="8" y2="147"/><line x1="5" y1="144" x2="5" y2="150"/><circle cx="5" cy="147" r="2"/></g>
  <g stroke="#ffdc40" fill="none" stroke-width="1"><line x1="0" y1="150" x2="0" y2="150"/><rect x="-2" y="148" width="4" height="4"/></g>
  <g stroke="#ffdc40" fill="none" stroke-width="1"><line x1="197" y1="132" x2="203" y2="132"/><line x1="200" y1="129" x2="200" y2="135"/><circle cx="200" cy="132" r="2"/></g>
  <g stroke="#ffdc40" fill="none" stroke-width="1"><line x1="223" y1="134" x2="262" y2="134"/><rect x="221" y="132" width="4" height="4"/></g>
  <g stroke="#ffdc40" fill="none" stroke-width="1"><line x1="223" y1="150" x2="301" y2="150"/><rect x="221" y="148" width="4" height="4"/></g>
  <g stroke="#ffdc40" fill="none" stroke-width="1"><line x1="217" y1="147" x2="223" y2="147"/><line x1="220" y1="144" x2="220" y2="150"/><circle cx="220" cy="147" r="2"/></g>
  <g stroke="#ffdc40" fill="none" stroke-width="1"><line x1="63" y1="166" x2="69" y2="166"/><line x1="66" y1="163" x2="66" y2="169"/><circle cx="66" cy="166" r="2"/></g>
  <g stroke="#ffdc40" fill="none" stroke-width="1"><line x1="155" y1="166" x2="161" y2="166"/><line x1="158" y1="163" x2="158" y2="169"/><circle cx="158" cy="166" r="2"/></g>
  <g stroke="#ffdc40" fill="none" stroke-width="1"><line x1="110" y1="95" x2="116" y2="95"/><line x1="113" y1="92" x2="113" y2="98"/><circle cx="113" cy="95" r="2"/></g>
  <g stroke="#ffdc40" fill="none" stroke-width="1"><line x1="43" y1="94" x2="49" y2="94"/><line x1="46" y1="91" x2="46" y2="97"/><circle cx="46" cy="94" r="2"/></g>
  <g stroke="#ffdc40" fill="none" stroke-width="1"><line x1="177" y1="94" x2="183" y2="94"/><line x1="180" y1="91" x2="180" y2="97"/><circle cx="180" cy="94" r="2"/></g>
  <g stroke="#ffdc40" fill="none" stroke-width="1"><line x1="112" y1="107" x2="118" y2="107"/><line x1="115" y1="104" x2="115" y2="110"/><circle cx="115" cy="107" r="2"/></g>
  <g stroke="#ffdc40" fill="none" stroke-width="1"><line x1="5" y1="106" x2="11" y2="106"/><line x1="8" y1="103" x2="8" y2="109"/><circle cx="8" cy="106" r="2"/></g>
  <g stroke="#ffdc40" fill="none" stroke-width="1"><line x1="217" y1="107" x2="223" y2="107"/><line x1="220" y1="104" x2="220" y2="110"/><circle cx="220" cy="107" r="2"/></g>
  <g stroke="#ffdc40" fill="none" stroke-width="1"><line x1="112" y1="125" x2="118" y2="125"/><line x1="115" y1="122" x2="115" y2="128"/><circle cx="115" cy="125" r="2"/></g>
  <g stroke="#ffdc40" fill="none" stroke-width="1"><line x1="109" y1="93" x2="115" y2="93"/><line x1="112" y1="90" x2="112" y2="96"/><circle cx="112" cy="93" r="2"/></g>
  <g stroke="#ffdc40" fill="none" stroke-width="1"><line x1="42" y1="94" x2="48" y2="94"/><line x1="45" y1="91" x2="45" y2="97"/><circle cx="45" cy="94" r="2"/></g>
  <g stroke="#ffdc40" fill="none" stroke-width="1"><line x1="176" y1="93" x2="182" y2="93"/><line x1="179" y1="90" x2="179" y2="96"/><circle cx="179" cy="93" r="2"/></g>
  <g stroke="#ffdc40" fill="none" stroke-width="1"><line x1="111" y1="106" x2="117" y2="106"/><line x1="114" y1="103" x2="114" y2="109"/><circle cx="114" cy="106" r="2"/></g>
  <g stroke="#ffdc40" fill="none" stroke-width="1"><line x1="1" y1="106" x2="7" y2="106"/><line x1="4" y1="103" x2="4" y2="109"/><circle cx="4" cy="106" r="2"/></g>
  <g stroke="#ffdc40" fill="none" stroke-width="1"><line x1="216" y1="106" x2="222" y2="106"/><line x1="219" y1="103" x2="219" y2="109"/><circle cx="219" cy="106" r="2"/></g>
  <g stroke="#ffdc40" fill="none" stroke-width="1"><line x1="111" y1="121" x2="117" y2="121"/><line x1="114" y1="118" x2="114" y2="124"/><circle cx="114" cy="121" r="2"/></g>
  <g stroke="#ffdc40" fill="none" stroke-width="1"><line x1="110" y1="96" x2="116" y2="96"/><line x1="113" y1="93" x2="113" y2="99"/><circle cx="113" cy="96" r="2"/></g>
  <g stroke="#ffdc40" fill="none" stroke-width="1"><line x1="42" y1="95" x2="48" y2="95"/><line x1="45" y1="92" x2="45" y2="98"/><circle cx="45" cy="95" r="2"/></g>
  <g stroke="#ffdc40" fill="none" stroke-width="1"><line x1="178" y1="95" x2="184" y2="95"/><line x1="181" y1="92" x2="181" y2="98"/><circle cx="181" cy="95" r="2"/></g>
  <g stroke="#ffdc40" fill="none" stroke-width="1"><line x1="111" y1="107" x2="117" y2="107"/><line x1="114" y1="104" x2="114" y2="110"/><circle cx="114" cy="107" r="2"/></g>
  <g stroke="#ffdc40" fill="none" stroke-width="1"><line x1="8" y1="106" x2="14" y2="106"/><line x1="11" y1="103" x2="11" y2="109"/><circle cx="11" cy="106" r="2"/></g>
  <g stroke="#ffdc40" fill="none" stroke-width="1"><line x1="215" y1="107" x2="221" y2="107"/><line x1="218" y1="104" x2="218" y2="110"/><circle cx="218" cy="107" r="2"/></g>
  <g stroke="#40dcff" fill="none" stroke-width="1"><line x1="126" y1="80" x2="132" y2="80"/><line x1="129" y1="77" x2="129" y2="83"/><circle cx="129" cy="80" r="2"/></g>
  <g stroke="#40dcff" fill="none" stroke-width="1"><line x1="92" y1="80" x2="98" y2="80"/><line x1="95" y1="77" x2="95" y2="83"/><circle cx="95" cy="80" r="2"/></g>
  <g stroke="#40dcff" fill="none" stroke-width="1"><line x1="59" y1="80" x2="65" y2="80"/><line x1="62" y1="77" x2="62" y2="83"/><circle cx="62" cy="80" r="2"/></g>
  <g stroke="#40dcff" fill="none" stroke-width="1"><line x1="22" y1="80" x2="28" y2="80"/><line x1="25" y1="77" x2="25" y2="83"/><circle cx="25" cy="80" r="2"/></g>
  <g stroke="#40dcff" fill="none" stroke-width="1"><line x1="197" y1="80" x2="203" y2="80"/><line x1="200" y1="77" x2="200" y2="83"/><circle cx="200" cy="80" r="2"/></g>
  <g stroke="#40dcff" fill="none" stroke-width="1"><line x1="159" y1="80" x2="165" y2="80"/><line x1="162" y1="77" x2="162" y2="83"/><circle cx="162" cy="80" r="2"/></g>
  <g stroke="#40dcff" fill="none" stroke-width="1"><line x1="-1" y1="80" x2="5" y2="80"/><line x1="2" y1="77" x2="2" y2="83"/><circle cx="2" cy="80" r="2"/></g>
  <g stroke="#40dcff" fill="none" stroke-width="1"><line x1="0" y1="80" x2="0" y2="80"/><rect x="-2" y="78" width="4" height="4"/></g>
  <g stroke="#40dcff" fill="none" stroke-width="1"><line x1="223" y1="80" x2="258" y2="80"/><rect x="221" y="78" width="4" height="4"/></g>
  <g stroke="#40dcff" fill="none" stroke-width="1"><line x1="199" y1="80" x2="205" y2="80"/><line x1="202" y1="77" x2="202" y2="83"/><circle cx="202" cy="80" r="2"/></g>
  <g stroke="#40dcff" fill="none" stroke-width="1"><line x1="89" y1="80" x2="95" y2="80"/><line x1="92" y1="77" x2="92" y2="83"/><circle cx="92" cy="80" r="2"/></g>
  <g stroke="#40dcff" fill="none" stroke-width="1"><line x1="129" y1="79" x2="135" y2="79"/><line x1="132" y1="76" x2="132" y2="82"/><circle cx="132" cy="79" r="2"/></g>
  <g stroke="#40dcff" fill="none" stroke-width="1"><line x1="133" y1="80" x2="139" y2="80"/><line x1="136" y1="77" x2="136" y2="83"/><circle cx="136" cy="80" r="2"/></g>
  <g stroke="#40dcff" fill="none" stroke-width="1"><line x1="85" y1="80" x2="91" y2="80"/><line x1="88" y1="77" x2="88" y2="83"/><circle cx="88" cy="80" r="2"/></g>
  <g stroke="#40dcff" fill="none" stroke-width="1"><line x1="7" y1="80" x2="13" y2="80"/><line x1="10" y1="77" x2="10" y2="83"/><circle cx="10" cy="80" r="2"/></g>
  <g stroke="#40dcff" fill="none" stroke-width="1"><line x1="50" y1="80" x2="56" y2="80"/><line x1="53" y1="77" x2="53" y2="83"/><circle cx="53" cy="80" r="2"/></g>
  <g stroke="#40dcff" fill="none" stroke-width="1"><line x1="38" y1="80" x2="44" y2="80"/><line x1="41" y1="77" x2="41" y2="83"/><circle cx="41" cy="80" r="2"/></g>
  <g stroke="#40dcff" fill="none" stroke-width="1"><line x1="0" y1="80" x2="0" y2="80"/><rect x="-2" y="78" width="4" height="4"/></g>
  <g stroke="#40dcff" fill="none" stroke-width="1"><line x1="168" y1="80" x2="174" y2="80"/><line x1="171" y1="77" x2="171" y2="83"/><circle cx="171" cy="80" r="2"/></g>
  <g stroke="#40dcff" fill="none" stroke-width="1"><line x1="215" y1="80" x2="221" y2="80"/><line x1="218" y1="77" x2="218" y2="83"/><circle cx="218" cy="80" r="2"/></g>
  <g stroke="#40dcff" fill="none" stroke-width="1"><line x1="223" y1="80" x2="236" y2="80"/><rect x="221" y="78" width="4" height="4"/></g>
  <g stroke="#40dcff" fill="none" stroke-width="1"><line x1="180" y1="80" x2="186" y2="80"/><line x1="183" y1="77" x2="183" y2="83"/><circle cx="183" cy="80" r="2"/></g>
  <g stroke="#40dcff" fill="none" stroke-width="1"><line x1="80" y1="80" x2="86" y2="80"/><line x1="83" y1="77" x2="83" y2="83"/><circle cx="83" cy="80" r="2"/></g>
  <g stroke="#40dcff" fill="none" stroke-width="1"><line x1="137" y1="80" x2="143" y2="80"/><line x1="140" y1="77" x2="140" y2="83"/><circle cx="140" cy="80" r="2"/></g>
  <g stroke="#40dcff" fill="none" stroke-width="1"><line x1="145" y1="80" x2="151" y2="80"/><line x1="148" y1="77" x2="148" y2="83"/><circle cx="148" cy="80" r="2"/></g>
  <g stroke="#40dcff" fill="none" stroke-width="1"><line x1="73" y1="80" x2="79" y2="80"/><line x1="76" y1="77" x2="76" y2="83"/><circle cx="76" cy="80" r="2"/></g>
  <g stroke="#40dcff" fill="none" stroke-width="1"><line x1="0" y1="80" x2="0" y2="80"/><rect x="-2" y="78" width="4" height="4"/></g>
  <g stroke="#40dcff" fill="none" stroke-width="1"><line x1="23" y1="80" x2="29" y2="80"/><line x1="26" y1="77" x2="26" y2="83"/><circle cx="26" cy="80" r="2"/></g>
  <g stroke="#40dcff" fill="none" stroke-width="1"><line x1="2" y1="80" x2="8" y2="80"/><line x1="5" y1="77" x2="5" y2="83"/><circle cx="5" cy="80" r="2"/></g>
  <g stroke="#40dcff" fill="none" stroke-width="1"><line x1="0" y1="80" x2="0" y2="80"/><rect x="-2" y="78" width="4" height="4"/></g>
  <g stroke="#40dcff" fill="none" stroke-width="1"><line x1="194" y1="80" x2="200" y2="80"/><line x1="197" y1="77" x2="197" y2="83"/><circle cx="197" cy="80" r="2"/></g>
  <g stroke="#40dcff" fill="none" stroke-width="1"><line x1="223" y1="80" x2="262" y2="80"/><rect x="221" y="78" width="4" height="4"/></g>
  <g stroke="#40dcff" fill="none" stroke-width="1"><line x1="223" y1="80" x2="301" y2="80"/><rect x="221" y="78" width="4" height="4"/></g>
  <g stroke="#40dcff" fill="none" stroke-width="1"><line x1="217" y1="80" x2="223" y2="80"/><line x1="220" y1="77" x2="220" y2="83"/><circle cx="220" cy="80" r="2"/></g>
  <g stroke="#40dcff" fill="none" stroke-width="1"><line x1="63" y1="80" x2="69" y2="80"/><line x1="66" y1="77" x2="66" y2="83"/><circle cx="66" cy="80" r="2"/></g>
  <g stroke="#40dcff" fill="none" stroke-width="1"><line x1="155" y1="80" x2="161" y2="80"/><line x1="158" y1="77" x2="158" y2="83"/><circle cx="158" cy="80" r="2"/></g>
  <g stroke="#ff50b4" fill="none" stroke-width="1"><line x1="94" y1="100" x2="100" y2="100"/><line x1="97" y1="97" x2="97" y2="103"/><circle cx="97" cy="100" r="2"/></g>
  <g stroke="#ff50b4" fill="none" stroke-width="1"><line x1="122" y1="100" x2="128" y2="100"/><line x1="125" y1="97" x2="125" y2="103"/><circle cx="125" cy="100" r="2"/></g>
  <g stroke="#ff50b4" fill="none" stroke-width="1"><line x1="126" y1="105" x2="132" y2="105"/><line x1="129" y1="102" x2="129" y2="108"/><circle cx="129" cy="105" r="2"/></g>
  <g stroke="#ff50b4" fill="none" stroke-width="1"><line x1="92" y1="105" x2="98" y2="105"/><line x1="95" y1="102" x2="95" y2="108"/><circle cx="95" cy="105" r="2"/></g>
  <g stroke="#ff50b4" fill="none" stroke-width="1"><line x1="109" y1="105" x2="115" y2="105"/><line x1="112" y1="102" x2="112" y2="108"/><circle cx="112" cy="105" r="2"/></g>
  <g stroke="#ff50b4" fill="none" stroke-width="1"><line x1="32" y1="101" x2="38" y2="101"/><line x1="35" y1="98" x2="35" y2="104"/><circle cx="35" cy="101" r="2"/></g>
  <g stroke="#ff50b4" fill="none" stroke-width="1"><line x1="60" y1="101" x2="66" y2="101"/><line x1="63" y1="98" x2="63" y2="104"/><circle cx="63" cy="101" r="2"/></g>
  <g stroke="#ff50b4" fill="none" stroke-width="1"><line x1="55" y1="105" x2="61" y2="105"/><line x1="58" y1="102" x2="58" y2="108"/><circle cx="58" cy="105" r="2"/></g>
  <g stroke="#ff50b4" fill="none" stroke-width="1"><line x1="24" y1="105" x2="30" y2="105"/><line x1="27" y1="102" x2="27" y2="108"/><circle cx="27" cy="105" r="2"/></g>
  <g stroke="#ff50b4" fill="none" stroke-width="1"><line x1="42" y1="105" x2="48" y2="105"/><line x1="45" y1="102" x2="45" y2="108"/><circle cx="45" cy="105" r="2"/></g>
  <g stroke="#ff50b4" fill="none" stroke-width="1"><line x1="154" y1="101" x2="160" y2="101"/><line x1="157" y1="98" x2="157" y2="104"/><circle cx="157" cy="101" r="2"/></g>
  <g stroke="#ff50b4" fill="none" stroke-width="1"><line x1="178" y1="100" x2="184" y2="100"/><line x1="181" y1="97" x2="181" y2="103"/><circle cx="181" cy="100" r="2"/></g>
  <g stroke="#ff50b4" fill="none" stroke-width="1"><line x1="197" y1="105" x2="203" y2="105"/><line x1="200" y1="102" x2="200" y2="108"/><circle cx="200" cy="105" r="2"/></g>
  <g stroke="#ff50b4" fill="none" stroke-width="1"><line x1="163" y1="105" x2="169" y2="105"/><line x1="166" y1="102" x2="166" y2="108"/><circle cx="166" cy="105" r="2"/></g>
  <g stroke="#ff50b4" fill="none" stroke-width="1"><line x1="176" y1="105" x2="182" y2="105"/><line x1="179" y1="102" x2="179" y2="108"/><circle cx="179" cy="105" r="2"/></g>
  <g stroke="#ff50b4" fill="none" stroke-width="1"><line x1="0" y1="103" x2="0" y2="103"/><rect x="-2" y="101" width="4" height="4"/></g>
  <g stroke="#ff50b4" fill="none" stroke-width="1"><line x1="0" y1="101" x2="6" y2="101"/><line x1="3" y1="98" x2="3" y2="104"/><circle cx="3" cy="101" r="2"/></g>
  <g stroke="#ff50b4" fill="none" stroke-width="1"><line x1="0" y1="105" x2="0" y2="105"/><rect x="-2" y="103" width="4" height="4"/></g>
  <g stroke="#ff50b4" fill="none" stroke-width="1"><line x1="0" y1="103" x2="0" y2="103"/><rect x="-2" y="101" width="4" height="4"/></g>
  <g stroke="#ff50b4" fill="none" stroke-width="1"><line x1="0" y1="105" x2="0" y2="105"/><rect x="-2" y="103" width="4" height="4"/></g>
  <g stroke="#ff50b4" fill="none" stroke-width="1"><line x1="216" y1="101" x2="222" y2="101"/><line x1="219" y1="98" x2="219" y2="104"/><circle cx="219" cy="101" r="2"/></g>
  <g stroke="#ff50b4" fill="none" stroke-width="1"><line x1="223" y1="103" x2="251" y2="103"/><rect x="221" y="101" width="4" height="4"/></g>
  <g stroke="#ff50b4" fill="none" stroke-width="1"><line x1="223" y1="103" x2="267" y2="103"/><rect x="221" y="101" width="4" height="4"/></g>
  <g stroke="#ff50b4" fill="none" stroke-width="1"><line x1="223" y1="103" x2="226" y2="103"/><rect x="221" y="101" width="4" height="4"/></g>
  <g stroke="#ff50b4" fill="none" stroke-width="1"><line x1="223" y1="105" x2="239" y2="105"/><rect x="221" y="103" width="4" height="4"/></g>
  <g stroke="#ff50b4" fill="none" stroke-width="1"><line x1="89" y1="116" x2="95" y2="116"/><line x1="92" y1="113" x2="92" y2="119"/><circle cx="92" cy="116" r="2"/></g>
  <g stroke="#ff50b4" fill="none" stroke-width="1"><line x1="128" y1="116" x2="134" y2="116"/><line x1="131" y1="113" x2="131" y2="119"/><circle cx="131" cy="116" r="2"/></g>
  <g stroke="#ff50b4" fill="none" stroke-width="1"><line x1="129" y1="123" x2="135" y2="123"/><line x1="132" y1="120" x2="132" y2="126"/><circle cx="132" cy="123" r="2"/></g>
  <g stroke="#ff50b4" fill="none" stroke-width="1"><line x1="88" y1="123" x2="94" y2="123"/><line x1="91" y1="120" x2="91" y2="126"/><circle cx="91" cy="123" r="2"/></g>
  <g stroke="#ff50b4" fill="none" stroke-width="1"><line x1="109" y1="118" x2="115" y2="118"/><line x1="112" y1="115" x2="112" y2="121"/><circle cx="112" cy="118" r="2"/></g>
  <g stroke="#ff50b4" fill="none" stroke-width="1"><line x1="1" y1="116" x2="7" y2="116"/><line x1="4" y1="113" x2="4" y2="119"/><circle cx="4" cy="116" r="2"/></g>
  <g stroke="#ff50b4" fill="none" stroke-width="1"><line x1="43" y1="116" x2="49" y2="116"/><line x1="46" y1="113" x2="46" y2="119"/><circle cx="46" cy="116" r="2"/></g>
  <g stroke="#ff50b4" fill="none" stroke-width="1"><line x1="32" y1="123" x2="38" y2="123"/><line x1="35" y1="120" x2="35" y2="126"/><circle cx="35" cy="123" r="2"/></g>
  <g stroke="#ff50b4" fill="none" stroke-width="1"><line x1="0" y1="123" x2="0" y2="123"/><rect x="-2" y="121" width="4" height="4"/></g>
  <g stroke="#ff50b4" fill="none" stroke-width="1"><line x1="17" y1="118" x2="23" y2="118"/><line x1="20" y1="115" x2="20" y2="121"/><circle cx="20" cy="118" r="2"/></g>
  <g stroke="#ff50b4" fill="none" stroke-width="1"><line x1="174" y1="116" x2="180" y2="116"/><line x1="177" y1="113" x2="177" y2="119"/><circle cx="177" cy="116" r="2"/></g>
  <g stroke="#ff50b4" fill="none" stroke-width="1"><line x1="223" y1="116" x2="224" y2="116"/><rect x="221" y="114" width="4" height="4"/></g>
  <g stroke="#ff50b4" fill="none" stroke-width="1"><line x1="223" y1="123" x2="243" y2="123"/><rect x="221" y="121" width="4" height="4"/></g>
  <g stroke="#ff50b4" fill="none" stroke-width="1"><line x1="186" y1="123" x2="192" y2="123"/><line x1="189" y1="120" x2="189" y2="126"/><circle cx="189" cy="123" r="2"/></g>
  <g stroke="#ff50b4" fill="none" stroke-width="1"><line x1="202" y1="118" x2="208" y2="118"/><line x1="205" y1="115" x2="205" y2="121"/><circle cx="205" cy="118" r="2"/></g>
  <g stroke="#ff50b4" fill="none" stroke-width="1"><line x1="80" y1="139" x2="86" y2="139"/><line x1="83" y1="136" x2="83" y2="142"/><circle cx="83" cy="139" r="2"/></g>
  <g stroke="#ff50b4" fill="none" stroke-width="1"><line x1="138" y1="139" x2="144" y2="139"/><line x1="141" y1="136" x2="141" y2="142"/><circle cx="141" cy="139" r="2"/></g>
  <g stroke="#ff50b4" fill="none" stroke-width="1"><line x1="145" y1="152" x2="151" y2="152"/><line x1="148" y1="149" x2="148" y2="155"/><circle cx="148" cy="152" r="2"/></g>
  <g stroke="#ff50b4" fill="none" stroke-width="1"><line x1="73" y1="152" x2="79" y2="152"/><line x1="76" y1="149" x2="76" y2="155"/><circle cx="76" cy="152" r="2"/></g>
  <g stroke="#ff50b4" fill="none" stroke-width="1"><line x1="109" y1="144" x2="115" y2="144"/><line x1="112" y1="141" x2="112" y2="147"/><circle cx="112" cy="144" r="2"/></g>
  <g stroke="#ff50b4" fill="none" stroke-width="1"><line x1="0" y1="136" x2="0" y2="136"/><rect x="-2" y="134" width="4" height="4"/></g>
  <g stroke="#ff50b4" fill="none" stroke-width="1"><line x1="15" y1="141" x2="21" y2="141"/><line x1="18" y1="138" x2="18" y2="144"/><circle cx="18" cy="141" r="2"/></g>
  <g stroke="#ff50b4" fill="none" stroke-width="1"><line x1="-2" y1="152" x2="4" y2="152"/><line x1="1" y1="149" x2="1" y2="155"/><circle cx="1" cy="152" r="2"/></g>
  <g stroke="#ff50b4" fill="none" stroke-width="1"><line x1="0" y1="152" x2="0" y2="152"/><rect x="-2" y="150" width="4" height="4"/></g>
  <g stroke="#ff50b4" fill="none" stroke-width="1"><line x1="0" y1="144" x2="0" y2="144"/><rect x="-2" y="142" width="4" height="4"/></g>
  <g stroke="#ff50b4" fill="none" stroke-width="1"><line x1="204" y1="142" x2="210" y2="142"/><line x1="207" y1="139" x2="207" y2="145"/><circle cx="207" cy="142" r="2"/></g>
  <g stroke="#ff50b4" fill="none" stroke-width="1"><line x1="223" y1="136" x2="277" y2="136"/><rect x="221" y="134" width="4" height="4"/></g>
  <g stroke="#ff50b4" fill="none" stroke-width="1"><line x1="223" y1="152" x2="319" y2="152"/><rect x="221" y="150" width="4" height="4"/></g>
  <g stroke="#ff50b4" fill="none" stroke-width="1"><line x1="220" y1="152" x2="226" y2="152"/><line x1="223" y1="149" x2="223" y2="155"/><circle cx="223" cy="152" r="2"/></g>
  <g stroke="#ff50b4" fill="none" stroke-width="1"><line x1="223" y1="144" x2="244" y2="144"/><rect x="221" y="142" width="4" height="4"/></g>
  <g stroke="#ff50b4" fill="none" stroke-width="1"><line x1="0" y1="168" x2="0" y2="168"/><rect x="-2" y="166" width="4" height="4"/></g>
  <g stroke="#ff50b4" fill="none" stroke-width="1"><line x1="223" y1="168" x2="256" y2="168"/><rect x="221" y="166" width="4" height="4"/></g>
  <g stroke="#ff50b4" fill="none" stroke-width="1"><line x1="91" y1="106" x2="97" y2="106"/><line x1="94" y1="103" x2="94" y2="109"/><circle cx="94" cy="106" r="2"/></g>
  <g stroke="#ff50b4" fill="none" stroke-width="1"><line x1="125" y1="106" x2="131" y2="106"/><line x1="128" y1="103" x2="128" y2="109"/><circle cx="128" cy="106" r="2"/></g>
  <g stroke="#ff50b4" fill="none" stroke-width="1"><line x1="109" y1="103" x2="115" y2="103"/><line x1="112" y1="100" x2="112" y2="106"/><circle cx="112" cy="103" r="2"/></g>
  <g stroke="#ff50b4" fill="none" stroke-width="1"><line x1="109" y1="103" x2="115" y2="103"/><line x1="112" y1="100" x2="112" y2="106"/><circle cx="112" cy="103" r="2"/></g>
  <g stroke="#ff50b4" fill="none" stroke-width="1"><line x1="109" y1="106" x2="115" y2="106"/><line x1="112" y1="103" x2="112" y2="109"/><circle cx="112" cy="106" r="2"/></g>
  <g stroke="#ff50b4" fill="none" stroke-width="1"><line x1="25" y1="106" x2="31" y2="106"/><line x1="28" y1="103" x2="28" y2="109"/><circle cx="28" cy="106" r="2"/></g>
  <g stroke="#ff50b4" fill="none" stroke-width="1"><line x1="55" y1="106" x2="61" y2="106"/><line x1="58" y1="103" x2="58" y2="109"/><circle cx="58" cy="106" r="2"/></g>
  <g stroke="#ff50b4" fill="none" stroke-width="1"><line x1="46" y1="103" x2="52" y2="103"/><line x1="49" y1="100" x2="49" y2="106"/><circle cx="49" cy="103" r="2"/></g>
  <g stroke="#ff50b4" fill="none" stroke-width="1"><line x1="42" y1="103" x2="48" y2="103"/><line x1="45" y1="100" x2="45" y2="106"/><circle cx="45" cy="103" r="2"/></g>
  <g stroke="#ff50b4" fill="none" stroke-width="1"><line x1="46" y1="106" x2="52" y2="106"/><line x1="49" y1="103" x2="49" y2="109"/><circle cx="49" cy="106" r="2"/></g>
  <g stroke="#ff50b4" fill="none" stroke-width="1"><line x1="163" y1="106" x2="169" y2="106"/><line x1="166" y1="103" x2="166" y2="109"/><circle cx="166" cy="106" r="2"/></g>
  <g stroke="#ff50b4" fill="none" stroke-width="1"><line x1="195" y1="106" x2="201" y2="106"/><line x1="198" y1="103" x2="198" y2="109"/><circle cx="198" cy="106" r="2"/></g>
  <g stroke="#ff50b4" fill="none" stroke-width="1"><line x1="172" y1="103" x2="178" y2="103"/><line x1="175" y1="100" x2="175" y2="106"/><circle cx="175" cy="103" r="2"/></g>
  <g stroke="#ff50b4" fill="none" stroke-width="1"><line x1="176" y1="103" x2="182" y2="103"/><line x1="179" y1="100" x2="179" y2="106"/><circle cx="179" cy="103" r="2"/></g>
  <g stroke="#ff50b4" fill="none" stroke-width="1"><line x1="175" y1="106" x2="181" y2="106"/><line x1="178" y1="103" x2="178" y2="109"/><circle cx="178" cy="106" r="2"/></g>
  <g stroke="#ff50b4" fill="none" stroke-width="1"><line x1="0" y1="108" x2="0" y2="108"/><rect x="-2" y="106" width="4" height="4"/></g>
  <g stroke="#ff50b4" fill="none" stroke-width="1"><line x1="0" y1="106" x2="0" y2="106"/><rect x="-2" y="104" width="4" height="4"/></g>
  <g stroke="#ff50b4" fill="none" stroke-width="1"><line x1="0" y1="103" x2="0" y2="103"/><rect x="-2" y="101" width="4" height="4"/></g>
  <g stroke="#ff50b4" fill="none" stroke-width="1"><line x1="0" y1="103" x2="0" y2="103"/><rect x="-2" y="101" width="4" height="4"/></g>
  <g stroke="#ff50b4" fill="none" stroke-width="1"><line x1="0" y1="103" x2="0" y2="103"/><rect x="-2" y="101" width="4" height="4"/></g>
  <g stroke="#ff50b4" fill="none" stroke-width="1"><line x1="223" y1="106" x2="226" y2="106"/><rect x="221" y="104" width="4" height="4"/></g>
  <g stroke="#ff50b4" fill="none" stroke-width="1"><line x1="223" y1="108" x2="264" y2="108"/><rect x="221" y="106" width="4" height="4"/></g>
  <g stroke="#ff50b4" fill="none" stroke-width="1"><line x1="223" y1="103" x2="235" y2="103"/><rect x="221" y="101" width="4" height="4"/></g>
  <g stroke="#ff50b4" fill="none" stroke-width="1"><line x1="223" y1="103" x2="239" y2="103"/><rect x="221" y="101" width="4" height="4"/></g>
  <g stroke="#ff50b4" fill="none" stroke-width="1"><line x1="223" y1="106" x2="233" y2="106"/><rect x="221" y="104" width="4" height="4"/></g>
  <g stroke="#ff50b4" fill="none" stroke-width="1"><line x1="88" y1="123" x2="94" y2="123"/><line x1="91" y1="120" x2="91" y2="126"/><circle cx="91" cy="123" r="2"/></g>
  <g stroke="#ff50b4" fill="none" stroke-width="1"><line x1="129" y1="123" x2="135" y2="123"/><line x1="132" y1="120" x2="132" y2="126"/><circle cx="132" cy="123" r="2"/></g>
  <g stroke="#ff50b4" fill="none" stroke-width="1"><line x1="109" y1="116" x2="115" y2="116"/><line x1="112" y1="113" x2="112" y2="119"/><circle cx="112" cy="116" r="2"/></g>
  <g stroke="#ff50b4" fill="none" stroke-width="1"><line x1="109" y1="118" x2="115" y2="118"/><line x1="112" y1="115" x2="112" y2="121"/><circle cx="112" cy="118" r="2"/></g>
  <g stroke="#ff50b4" fill="none" stroke-width="1"><line x1="109" y1="122" x2="115" y2="122"/><line x1="112" y1="119" x2="112" y2="125"/><circle cx="112" cy="122" r="2"/></g>
  <g stroke="#ff50b4" fill="none" stroke-width="1"><line x1="0" y1="123" x2="0" y2="123"/><rect x="-2" y="121" width="4" height="4"/></g>
  <g stroke="#ff50b4" fill="none" stroke-width="1"><line x1="32" y1="123" x2="38" y2="123"/><line x1="35" y1="120" x2="35" y2="126"/><circle cx="35" cy="123" r="2"/></g>
  <g stroke="#ff50b4" fill="none" stroke-width="1"><line x1="22" y1="116" x2="28" y2="116"/><line x1="25" y1="113" x2="25" y2="119"/><circle cx="25" cy="116" r="2"/></g>
  <g stroke="#ff50b4" fill="none" stroke-width="1"><line x1="17" y1="118" x2="23" y2="118"/><line x1="20" y1="115" x2="20" y2="121"/><circle cx="20" cy="118" r="2"/></g>
  <g stroke="#ff50b4" fill="none" stroke-width="1"><line x1="23" y1="122" x2="29" y2="122"/><line x1="26" y1="119" x2="26" y2="125"/><circle cx="26" cy="122" r="2"/></g>
  <g stroke="#ff50b4" fill="none" stroke-width="1"><line x1="186" y1="123" x2="192" y2="123"/><line x1="189" y1="120" x2="189" y2="126"/><circle cx="189" cy="123" r="2"/></g>
  <g stroke="#ff50b4" fill="none" stroke-width="1"><line x1="223" y1="123" x2="243" y2="123"/><rect x="221" y="121" width="4" height="4"/></g>
  <g stroke="#ff50b4" fill="none" stroke-width="1"><line x1="196" y1="116" x2="202" y2="116"/><line x1="199" y1="113" x2="199" y2="119"/><circle cx="199" cy="116" r="2"/></g>
  <g stroke="#ff50b4" fill="none" stroke-width="1"><line x1="202" y1="118" x2="208" y2="118"/><line x1="205" y1="115" x2="205" y2="121"/><circle cx="205" cy="118" r="2"/></g>
  <g stroke="#ff50b4" fill="none" stroke-width="1"><line x1="200" y1="122" x2="206" y2="122"/><line x1="203" y1="119" x2="203" y2="125"/><circle cx="203" cy="122" r="2"/></g>
  <g stroke="#ff50b4" fill="none" stroke-width="1"><line x1="78" y1="152" x2="84" y2="152"/><line x1="81" y1="149" x2="81" y2="155"/><circle cx="81" cy="152" r="2"/></g>
  <g stroke="#ff50b4" fill="none" stroke-width="1"><line x1="139" y1="152" x2="145" y2="152"/><line x1="142" y1="149" x2="142" y2="155"/><circle cx="142" cy="152" r="2"/></g>
  <g stroke="#ff50b4" fill="none" stroke-width="1"><line x1="109" y1="138" x2="115" y2="138"/><line x1="112" y1="135" x2="112" y2="141"/><circle cx="112" cy="138" r="2"/></g>
  <g stroke="#ff50b4" fill="none" stroke-width="1"><line x1="109" y1="144" x2="115" y2="144"/><line x1="112" y1="141" x2="112" y2="147"/><circle cx="112" cy="144" r="2"/></g>
  <g stroke="#ff50b4" fill="none" stroke-width="1"><line x1="109" y1="152" x2="115" y2="152"/><line x1="112" y1="149" x2="112" y2="155"/><circle cx="112" cy="152" r="2"/></g>
  <g stroke="#ff50b4" fill="none" stroke-width="1"><line x1="0" y1="152" x2="0" y2="152"/><rect x="-2" y="150" width="4" height="4"/></g>
  <g stroke="#ff50b4" fill="none" stroke-width="1"><line x1="-2" y1="152" x2="4" y2="152"/><line x1="1" y1="149" x2="1" y2="155"/><circle cx="1" cy="152" r="2"/></g>
  <g stroke="#ff50b4" fill="none" stroke-width="1"><line x1="0" y1="138" x2="0" y2="138"/><rect x="-2" y="136" width="4" height="4"/></g>
  <g stroke="#ff50b4" fill="none" stroke-width="1"><line x1="0" y1="144" x2="0" y2="144"/><rect x="-2" y="142" width="4" height="4"/></g>
  <g stroke="#ff50b4" fill="none" stroke-width="1"><line x1="0" y1="152" x2="0" y2="152"/><rect x="-2" y="150" width="4" height="4"/></g>
  <g stroke="#ff50b4" fill="none" stroke-width="1"><line x1="220" y1="152" x2="226" y2="152"/><line x1="223" y1="149" x2="223" y2="155"/><circle cx="223" cy="152" r="2"/></g>
  <g stroke="#ff50b4" fill="none" stroke-width="1"><line x1="223" y1="152" x2="319" y2="152"/><rect x="221" y="150" width="4" height="4"/></g>
  <g stroke="#ff50b4" fill="none" stroke-width="1"><line x1="223" y1="138" x2="239" y2="138"/><rect x="221" y="136" width="4" height="4"/></g>
  <g stroke="#ff50b4" fill="none" stroke-width="1"><line x1="223" y1="144" x2="253" y2="144"/><rect x="221" y="142" width="4" height="4"/></g>
  <g stroke="#ff50b4" fill="none" stroke-width="1"><line x1="223" y1="152" x2="246" y2="152"/><rect x="221" y="150" width="4" height="4"/></g>
  <g stroke="#ff50b4" fill="none" stroke-width="1"><line x1="0" y1="163" x2="0" y2="163"/><rect x="-2" y="161" width="4" height="4"/></g>
  <g stroke="#ff50b4" fill="none" stroke-width="1"><line x1="0" y1="163" x2="0" y2="163"/><rect x="-2" y="161" width="4" height="4"/></g>
  <g stroke="#ff50b4" fill="none" stroke-width="1"><line x1="0" y1="154" x2="0" y2="154"/><rect x="-2" y="152" width="4" height="4"/></g>
  <g stroke="#ff50b4" fill="none" stroke-width="1"><line x1="0" y1="159" x2="0" y2="159"/><rect x="-2" y="157" width="4" height="4"/></g>
  <g stroke="#ff50b4" fill="none" stroke-width="1"><line x1="0" y1="163" x2="0" y2="163"/><rect x="-2" y="161" width="4" height="4"/></g>
  <g stroke="#ff50b4" fill="none" stroke-width="1"><line x1="223" y1="163" x2="240" y2="163"/><rect x="221" y="161" width="4" height="4"/></g>
  <g stroke="#ff50b4" fill="none" stroke-width="1"><line x1="223" y1="163" x2="319" y2="163"/><rect x="221" y="161" width="4" height="4"/></g>
  <g stroke="#ff50b4" fill="none" stroke-width="1"><line x1="223" y1="154" x2="266" y2="154"/><rect x="221" y="152" width="4" height="4"/></g>
  <g stroke="#ff50b4" fill="none" stroke-width="1"><line x1="223" y1="159" x2="276" y2="159"/><rect x="221" y="157" width="4" height="4"/></g>
  <g stroke="#ff50b4" fill="none" stroke-width="1"><line x1="223" y1="163" x2="266" y2="163"/><rect x="221" y="161" width="4" height="4"/></g>
  <g stroke="#ff50b4" fill="none" stroke-width="1"><line x1="92" y1="92" x2="98" y2="92"/><line x1="95" y1="89" x2="95" y2="95"/><circle cx="95" cy="92" r="2"/></g>
  <g stroke="#ff50b4" fill="none" stroke-width="1"><line x1="124" y1="92" x2="130" y2="92"/><line x1="127" y1="89" x2="127" y2="95"/><circle cx="127" cy="92" r="2"/></g>
  <g stroke="#ff50b4" fill="none" stroke-width="1"><line x1="126" y1="94" x2="132" y2="94"/><line x1="129" y1="91" x2="129" y2="97"/><circle cx="129" cy="94" r="2"/></g>
  <g stroke="#ff50b4" fill="none" stroke-width="1"><line x1="90" y1="94" x2="96" y2="94"/><line x1="93" y1="91" x2="93" y2="97"/><circle cx="93" cy="94" r="2"/></g>
  <g stroke="#ff50b4" fill="none" stroke-width="1"><line x1="109" y1="93" x2="115" y2="93"/><line x1="112" y1="90" x2="112" y2="96"/><circle cx="112" cy="93" r="2"/></g>
  <g stroke="#ff50b4" fill="none" stroke-width="1"><line x1="36" y1="92" x2="42" y2="92"/><line x1="39" y1="89" x2="39" y2="95"/><circle cx="39" cy="92" r="2"/></g>
  <g stroke="#ff50b4" fill="none" stroke-width="1"><line x1="60" y1="92" x2="66" y2="92"/><line x1="63" y1="89" x2="63" y2="95"/><circle cx="63" cy="92" r="2"/></g>
  <g stroke="#ff50b4" fill="none" stroke-width="1"><line x1="55" y1="94" x2="61" y2="94"/><line x1="58" y1="91" x2="58" y2="97"/><circle cx="58" cy="94" r="2"/></g>
  <g stroke="#ff50b4" fill="none" stroke-width="1"><line x1="22" y1="94" x2="28" y2="94"/><line x1="25" y1="91" x2="25" y2="97"/><circle cx="25" cy="94" r="2"/></g>
  <g stroke="#ff50b4" fill="none" stroke-width="1"><line x1="42" y1="93" x2="48" y2="93"/><line x1="45" y1="90" x2="45" y2="96"/><circle cx="45" cy="93" r="2"/></g>
  <g stroke="#ff50b4" fill="none" stroke-width="1"><line x1="156" y1="92" x2="162" y2="92"/><line x1="159" y1="89" x2="159" y2="95"/><circle cx="159" cy="92" r="2"/></g>
  <g stroke="#ff50b4" fill="none" stroke-width="1"><line x1="182" y1="92" x2="188" y2="92"/><line x1="185" y1="89" x2="185" y2="95"/><circle cx="185" cy="92" r="2"/></g>
  <g stroke="#ff50b4" fill="none" stroke-width="1"><line x1="198" y1="94" x2="204" y2="94"/><line x1="201" y1="91" x2="201" y2="97"/><circle cx="201" cy="94" r="2"/></g>
  <g stroke="#ff50b4" fill="none" stroke-width="1"><line x1="163" y1="94" x2="169" y2="94"/><line x1="166" y1="91" x2="166" y2="97"/><circle cx="166" cy="94" r="2"/></g>
  <g stroke="#ff50b4" fill="none" stroke-width="1"><line x1="176" y1="93" x2="182" y2="93"/><line x1="179" y1="90" x2="179" y2="96"/><circle cx="179" cy="93" r="2"/></g>
  <g stroke="#ff50b4" fill="none" stroke-width="1"><line x1="0" y1="92" x2="0" y2="92"/><rect x="-2" y="90" width="4" height="4"/></g>
  <g stroke="#ff50b4" fill="none" stroke-width="1"><line x1="0" y1="92" x2="6" y2="92"/><line x1="3" y1="89" x2="3" y2="95"/><circle cx="3" cy="92" r="2"/></g>
  <g stroke="#ff50b4" fill="none" stroke-width="1"><line x1="0" y1="94" x2="0" y2="94"/><rect x="-2" y="92" width="4" height="4"/></g>
  <g stroke="#ff50b4" fill="none" stroke-width="1"><line x1="0" y1="94" x2="0" y2="94"/><rect x="-2" y="92" width="4" height="4"/></g>
  <g stroke="#ff50b4" fill="none" stroke-width="1"><line x1="0" y1="93" x2="0" y2="93"/><rect x="-2" y="91" width="4" height="4"/></g>
  <g stroke="#ff50b4" fill="none" stroke-width="1"><line x1="216" y1="92" x2="222" y2="92"/><line x1="219" y1="89" x2="219" y2="95"/><circle cx="219" cy="92" r="2"/></g>
  <g stroke="#ff50b4" fill="none" stroke-width="1"><line x1="223" y1="92" x2="251" y2="92"/><rect x="221" y="90" width="4" height="4"/></g>
  <g stroke="#ff50b4" fill="none" stroke-width="1"><line x1="223" y1="94" x2="267" y2="94"/><rect x="221" y="92" width="4" height="4"/></g>
  <g stroke="#ff50b4" fill="none" stroke-width="1"><line x1="223" y1="94" x2="226" y2="94"/><rect x="221" y="92" width="4" height="4"/></g>
  <g stroke="#ff50b4" fill="none" stroke-width="1"><line x1="223" y1="93" x2="239" y2="93"/><rect x="221" y="91" width="4" height="4"/></g>
  <g stroke="#ff50b4" fill="none" stroke-width="1"><line x1="89" y1="98" x2="95" y2="98"/><line x1="92" y1="95" x2="92" y2="101"/><circle cx="92" cy="98" r="2"/></g>
  <g stroke="#ff50b4" fill="none" stroke-width="1"><line x1="128" y1="98" x2="134" y2="98"/><line x1="131" y1="95" x2="131" y2="101"/><circle cx="131" cy="98" r="2"/></g>
  <g stroke="#ff50b4" fill="none" stroke-width="1"><line x1="129" y1="100" x2="135" y2="100"/><line x1="132" y1="97" x2="132" y2="103"/><circle cx="132" cy="100" r="2"/></g>
  <g stroke="#ff50b4" fill="none" stroke-width="1"><line x1="88" y1="100" x2="94" y2="100"/><line x1="91" y1="97" x2="91" y2="103"/><circle cx="91" cy="100" r="2"/></g>
  <g stroke="#ff50b4" fill="none" stroke-width="1"><line x1="109" y1="99" x2="115" y2="99"/><line x1="112" y1="96" x2="112" y2="102"/><circle cx="112" cy="99" r="2"/></g>
  <g stroke="#ff50b4" fill="none" stroke-width="1"><line x1="0" y1="98" x2="0" y2="98"/><rect x="-2" y="96" width="4" height="4"/></g>
  <g stroke="#ff50b4" fill="none" stroke-width="1"><line x1="43" y1="98" x2="49" y2="98"/><line x1="46" y1="95" x2="46" y2="101"/><circle cx="46" cy="98" r="2"/></g>
  <g stroke="#ff50b4" fill="none" stroke-width="1"><line x1="32" y1="100" x2="38" y2="100"/><line x1="35" y1="97" x2="35" y2="103"/><circle cx="35" cy="100" r="2"/></g>
  <g stroke="#ff50b4" fill="none" stroke-width="1"><line x1="0" y1="100" x2="0" y2="100"/><rect x="-2" y="98" width="4" height="4"/></g>
  <g stroke="#ff50b4" fill="none" stroke-width="1"><line x1="17" y1="99" x2="23" y2="99"/><line x1="20" y1="96" x2="20" y2="102"/><circle cx="20" cy="99" r="2"/></g>
  <g stroke="#ff50b4" fill="none" stroke-width="1"><line x1="174" y1="98" x2="180" y2="98"/><line x1="177" y1="95" x2="177" y2="101"/><circle cx="177" cy="98" r="2"/></g>
  <g stroke="#ff50b4" fill="none" stroke-width="1"><line x1="223" y1="98" x2="224" y2="98"/><rect x="221" y="96" width="4" height="4"/></g>
  <g stroke="#ff50b4" fill="none" stroke-width="1"><line x1="223" y1="100" x2="243" y2="100"/><rect x="221" y="98" width="4" height="4"/></g>
  <g stroke="#ff50b4" fill="none" stroke-width="1"><line x1="186" y1="100" x2="192" y2="100"/><line x1="189" y1="97" x2="189" y2="103"/><circle cx="189" cy="100" r="2"/></g>
  <g stroke="#ff50b4" fill="none" stroke-width="1"><line x1="202" y1="99" x2="208" y2="99"/><line x1="205" y1="96" x2="205" y2="102"/><circle cx="205" cy="99" r="2"/></g>
  <g stroke="#ff50b4" fill="none" stroke-width="1"><line x1="80" y1="112" x2="86" y2="112"/><line x1="83" y1="109" x2="83" y2="115"/><circle cx="83" cy="112" r="2"/></g>
  <g stroke="#ff50b4" fill="none" stroke-width="1"><line x1="138" y1="112" x2="144" y2="112"/><line x1="141" y1="109" x2="141" y2="115"/><circle cx="141" cy="112" r="2"/></g>
  <g stroke="#ff50b4" fill="none" stroke-width="1"><line x1="145" y1="118" x2="151" y2="118"/><line x1="148" y1="115" x2="148" y2="121"/><circle cx="148" cy="118" r="2"/></g>
  <g stroke="#ff50b4" fill="none" stroke-width="1"><line x1="73" y1="118" x2="79" y2="118"/><line x1="76" y1="115" x2="76" y2="121"/><circle cx="76" cy="118" r="2"/></g>
  <g stroke="#ff50b4" fill="none" stroke-width="1"><line x1="109" y1="114" x2="115" y2="114"/><line x1="112" y1="111" x2="112" y2="117"/><circle cx="112" cy="114" r="2"/></g>
  <g stroke="#ff50b4" fill="none" stroke-width="1"><line x1="0" y1="112" x2="0" y2="112"/><rect x="-2" y="110" width="4" height="4"/></g>
  <g stroke="#ff50b4" fill="none" stroke-width="1"><line x1="15" y1="112" x2="21" y2="112"/><line x1="18" y1="109" x2="18" y2="115"/><circle cx="18" cy="112" r="2"/></g>
  <g stroke="#ff50b4" fill="none" stroke-width="1"><line x1="-2" y1="118" x2="4" y2="118"/><line x1="1" y1="115" x2="1" y2="121"/><circle cx="1" cy="118" r="2"/></g>
  <g stroke="#ff50b4" fill="none" stroke-width="1"><line x1="0" y1="118" x2="0" y2="118"/><rect x="-2" y="116" width="4" height="4"/></g>
  <g stroke="#ff50b4" fill="none" stroke-width="1"><line x1="0" y1="114" x2="0" y2="114"/><rect x="-2" y="112" width="4" height="4"/></g>
  <g stroke="#ff50b4" fill="none" stroke-width="1"><line x1="204" y1="112" x2="210" y2="112"/><line x1="207" y1="109" x2="207" y2="115"/><circle cx="207" cy="112" r="2"/></g>
  <g stroke="#ff50b4" fill="none" stroke-width="1"><line x1="223" y1="112" x2="277" y2="112"/><rect x="221" y="110" width="4" height="4"/></g>
  <g stroke="#ff50b4" fill="none" stroke-width="1"><line x1="223" y1="118" x2="319" y2="118"/><rect x="221" y="116" width="4" height="4"/></g>
  <g stroke="#ff50b4" fill="none" stroke-width="1"><line x1="220" y1="118" x2="226" y2="118"/><line x1="223" y1="115" x2="223" y2="121"/><circle cx="223" cy="118" r="2"/></g>
  <g stroke="#ff50b4" fill="none" stroke-width="1"><line x1="223" y1="114" x2="244" y2="114"/><rect x="221" y="112" width="4" height="4"/></g>
  <g stroke="#ff50b4" fill="none" stroke-width="1"><line x1="0" y1="129" x2="0" y2="129"/><rect x="-2" y="127" width="4" height="4"/></g>
  <g stroke="#ff50b4" fill="none" stroke-width="1"><line x1="223" y1="129" x2="256" y2="129"/><rect x="221" y="127" width="4" height="4"/></g>
</svg>
